<?xml version="1.0" encoding="UTF-8"?>
<!DOCTYPE svg PUBLIC "-//W3C//DTD SVG 1.1//EN" "http://www.w3.org/Graphics/SVG/1.1/DTD/svg11.dtd">
<svg xmlns="http://www.w3.org/2000/svg" version="1.1" width="32px" height="32px" style="shape-rendering:geometricPrecision; text-rendering:geometricPrecision; image-rendering:optimizeQuality; fill-rule:evenodd; clip-rule:evenodd" xmlns:xlink="http://www.w3.org/1999/xlink">
<g><path style="opacity:0.952" fill="#ebebeb" d="M 5.5,3.5 C 12.1667,3.5 18.8333,3.5 25.5,3.5C 25.5,11.5 25.5,19.5 25.5,27.5C 18.8333,27.5 12.1667,27.5 5.5,27.5C 5.5,19.5 5.5,11.5 5.5,3.5 Z M 8.5,5.5 C 13.43,5.19749 18.2633,5.53082 23,6.5C 23.8087,12.7489 23.642,18.9156 22.5,25C 17.581,25.8015 12.7477,25.6349 8,24.5C 7.20983,18.0853 7.37649,11.752 8.5,5.5 Z"/></g>
<g><path style="opacity:1" fill="#eaebea" d="M 9.5,7.5 C 13.5546,7.17575 17.5546,7.50909 21.5,8.5C 19.5,8.83333 17.5,9.16667 15.5,9.5C 13.0478,9.46093 11.0478,8.79426 9.5,7.5 Z"/></g>
<g><path style="opacity:1" fill="#eaebea" d="M 9.5,13.5 C 11.337,13.6395 11.6704,14.3061 10.5,15.5C 9.70245,15.0431 9.36912,14.3764 9.5,13.5 Z"/></g>
<g><path style="opacity:1" fill="#eaebea" d="M 13.5,13.5 C 15.337,13.6395 15.6704,14.3061 14.5,15.5C 13.7025,15.0431 13.3691,14.3764 13.5,13.5 Z"/></g>
<g><path style="opacity:1" fill="#eaebea" d="M 17.5,13.5 C 18.9778,13.238 20.3112,13.5713 21.5,14.5C 20.8333,14.8333 20.1667,15.1667 19.5,15.5C 18.2867,15.2528 17.62,14.5862 17.5,13.5 Z"/></g>
<g><path style="opacity:1" fill="#eaebea" d="M 9.5,17.5 C 11.337,17.6395 11.6704,18.3061 10.5,19.5C 9.70245,19.0431 9.36912,18.3764 9.5,17.5 Z"/></g>
<g><path style="opacity:1" fill="#eaebea" d="M 13.5,17.5 C 15.337,17.6395 15.6704,18.3061 14.5,19.5C 13.7025,19.0431 13.3691,18.3764 13.5,17.5 Z"/></g>
<g><path style="opacity:1" fill="#eaebea" d="M 17.5,17.5 C 18.9778,17.238 20.3112,17.5713 21.5,18.5C 20.8333,18.8333 20.1667,19.1667 19.5,19.5C 18.2867,19.2528 17.62,18.5862 17.5,17.5 Z"/></g>
<g><path style="opacity:1" fill="#eaebea" d="M 9.5,21.5 C 11.337,21.6395 11.6704,22.3061 10.5,23.5C 9.70245,23.0431 9.36912,22.3764 9.5,21.5 Z"/></g>
<g><path style="opacity:1" fill="#eaebea" d="M 13.5,21.5 C 15.337,21.6395 15.6704,22.3061 14.5,23.5C 13.7025,23.0431 13.3691,22.3764 13.5,21.5 Z"/></g>
<g><path style="opacity:1" fill="#eaebea" d="M 17.5,21.5 C 18.9778,21.238 20.3112,21.5713 21.5,22.5C 20.8333,22.8333 20.1667,23.1667 19.5,23.5C 18.2867,23.2528 17.62,22.5862 17.5,21.5 Z"/></g>
</svg>
