<?xml version="1.0" encoding="UTF-8"?>
<!DOCTYPE svg PUBLIC "-//W3C//DTD SVG 1.1//EN" "http://www.w3.org/Graphics/SVG/1.1/DTD/svg11.dtd">
<svg xmlns="http://www.w3.org/2000/svg" version="1.1" width="32px" height="32px" style="shape-rendering:geometricPrecision; text-rendering:geometricPrecision; image-rendering:optimizeQuality; fill-rule:evenodd; clip-rule:evenodd" xmlns:xlink="http://www.w3.org/1999/xlink">
<g><path style="opacity:0.969" fill="#ebebeb" d="M 5.5,1.5 C 11.1702,4.07239 16.8368,4.07239 22.5,1.5C 23.8415,3.00488 25.5082,3.67154 27.5,3.5C 27.5,11.5 27.5,19.5 27.5,27.5C 18.8333,27.5 10.1667,27.5 1.5,27.5C 1.5,19.5 1.5,11.5 1.5,3.5C 3.48324,3.84316 4.81658,3.17649 5.5,1.5 Z M 4.5,5.5 C 5.15149,6.09065 5.81815,6.75731 6.5,7.5C 8.96203,6.28441 11.6287,5.61774 14.5,5.5C 17.3713,5.61774 20.038,6.28441 22.5,7.5C 24.5743,5.17227 25.5743,5.83893 25.5,9.5C 18.1667,9.5 10.8333,9.5 3.5,9.5C 3.43255,8.04125 3.76589,6.70792 4.5,5.5 Z M 3.5,11.5 C 10.8333,11.5 18.1667,11.5 25.5,11.5C 25.6657,15.8461 25.499,20.1794 25,24.5C 18,25.8333 11,25.8333 4,24.5C 3.50098,20.1794 3.33432,15.8461 3.5,11.5 Z"/></g>
<g><path style="opacity:1" fill="#eaebea" d="M 9.5,13.5 C 11.337,13.6395 11.6704,14.3061 10.5,15.5C 9.70245,15.0431 9.36912,14.3764 9.5,13.5 Z"/></g>
<g><path style="opacity:1" fill="#eaebea" d="M 13.5,13.5 C 15.337,13.6395 15.6704,14.3061 14.5,15.5C 13.7025,15.0431 13.3691,14.3764 13.5,13.5 Z"/></g>
<g><path style="opacity:1" fill="#eaebea" d="M 17.5,13.5 C 19.337,13.6395 19.6704,14.3061 18.5,15.5C 17.7025,15.0431 17.3691,14.3764 17.5,13.5 Z"/></g>
<g><path style="opacity:1" fill="#eaebea" d="M 21.5,13.5 C 23.337,13.6395 23.6704,14.3061 22.5,15.5C 21.7025,15.0431 21.3691,14.3764 21.5,13.5 Z"/></g>
<g><path style="opacity:1" fill="#eaebea" d="M 5.5,17.5 C 7.33702,17.6395 7.67036,18.3061 6.5,19.5C 5.70245,19.0431 5.36912,18.3764 5.5,17.5 Z"/></g>
<g><path style="opacity:1" fill="#eaebea" d="M 9.5,17.5 C 11.337,17.6395 11.6704,18.3061 10.5,19.5C 9.70245,19.0431 9.36912,18.3764 9.5,17.5 Z"/></g>
<g><path style="opacity:1" fill="#eaebea" d="M 13.5,17.5 C 15.337,17.6395 15.6704,18.3061 14.5,19.5C 13.7025,19.0431 13.3691,18.3764 13.5,17.5 Z"/></g>
<g><path style="opacity:1" fill="#eaebea" d="M 17.5,17.5 C 19.337,17.6395 19.6704,18.3061 18.5,19.5C 17.7025,19.0431 17.3691,18.3764 17.5,17.5 Z"/></g>
<g><path style="opacity:1" fill="#eaebea" d="M 21.5,17.5 C 23.337,17.6395 23.6704,18.3061 22.5,19.5C 21.7025,19.0431 21.3691,18.3764 21.5,17.5 Z"/></g>
<g><path style="opacity:1" fill="#eaebea" d="M 5.5,21.5 C 7.33702,21.6395 7.67036,22.3061 6.5,23.5C 5.70245,23.0431 5.36912,22.3764 5.5,21.5 Z"/></g>
<g><path style="opacity:1" fill="#eaebea" d="M 9.5,21.5 C 11.337,21.6395 11.6704,22.3061 10.5,23.5C 9.70245,23.0431 9.36912,22.3764 9.5,21.5 Z"/></g>
<g><path style="opacity:1" fill="#eaebea" d="M 13.5,21.5 C 15.337,21.6395 15.6704,22.3061 14.5,23.5C 13.7025,23.0431 13.3691,22.3764 13.5,21.5 Z"/></g>
</svg>
