<?xml version="1.0" encoding="UTF-8"?>
<!DOCTYPE svg PUBLIC "-//W3C//DTD SVG 1.1//EN" "http://www.w3.org/Graphics/SVG/1.1/DTD/svg11.dtd">
<svg xmlns="http://www.w3.org/2000/svg" version="1.1" width="32px" height="32px" style="shape-rendering:geometricPrecision; text-rendering:geometricPrecision; image-rendering:optimizeQuality; fill-rule:evenodd; clip-rule:evenodd" xmlns:xlink="http://www.w3.org/1999/xlink">
<g><path style="opacity:0.774" fill="#ebebeb" d="M 11.5,6.5 C 17.267,5.23744 21.6003,7.07077 24.5,12C 26.3289,12.2735 27.8289,13.1068 29,14.5C 30.0037,17.9926 29.5037,21.1592 27.5,24C 19.5,24.6667 11.5,24.6667 3.5,24C 1.49629,21.1592 0.996293,17.9926 2,14.5C 3.67534,13.4045 4.842,11.9045 5.5,10C 7.9096,9.4005 9.9096,8.23383 11.5,6.5 Z M 12.5,9.5 C 17.7092,8.39607 20.7092,10.3961 21.5,15.5C 25.6772,14.8416 27.1772,16.5082 26,20.5C 25.2496,21.1258 24.4162,21.6258 23.5,22C 18.1667,22.6667 12.8333,22.6667 7.5,22C 5.59036,21.5917 4.59036,20.4251 4.5,18.5C 5.82144,16.6682 6.82144,14.6682 7.5,12.5C 9.93275,12.7271 11.5994,11.7271 12.5,9.5 Z"/></g>
</svg>
