<?xml version="1.0" encoding="UTF-8"?>
<!DOCTYPE svg PUBLIC "-//W3C//DTD SVG 1.1//EN" "http://www.w3.org/Graphics/SVG/1.1/DTD/svg11.dtd">
<svg xmlns="http://www.w3.org/2000/svg" version="1.1" width="32px" height="32px" style="shape-rendering:geometricPrecision; text-rendering:geometricPrecision; image-rendering:optimizeQuality; fill-rule:evenodd; clip-rule:evenodd" xmlns:xlink="http://www.w3.org/1999/xlink">
<g><path style="opacity:0.737" fill="#eaeaea" d="M 11.5,1.5 C 13.604,1.2011 15.604,1.53443 17.5,2.5C 15.1088,3.80863 15.1088,4.80863 17.5,5.5C 20.1553,6.61839 22.822,6.61839 25.5,5.5C 25.732,11.5345 25.232,17.5345 24,23.5C 19.9089,27.3049 15.0755,28.4716 9.5,27C 5.04662,24.9289 3.04662,21.4289 3.5,16.5C 3.51749,9.81033 6.85082,5.81033 13.5,4.5C 12.3881,3.73485 11.7214,2.73485 11.5,1.5 Z M 10.5,8.5 C 19.6571,7.48923 23.4904,11.4892 22,20.5C 17,25.8333 12,25.8333 7,20.5C 5.59335,15.6427 6.76002,11.6427 10.5,8.5 Z"/></g>
<g><path style="opacity:0.944" fill="#eaeaea" d="M 13.5,9.5 C 14.7479,10.3339 15.4146,11.6672 15.5,13.5C 15.1667,14.8333 14.8333,16.1667 14.5,17.5C 13.52,14.9135 13.1866,12.2469 13.5,9.5 Z"/></g>
</svg>
