<?xml version="1.0" encoding="UTF-8"?>
<!DOCTYPE svg PUBLIC "-//W3C//DTD SVG 1.1//EN" "http://www.w3.org/Graphics/SVG/1.1/DTD/svg11.dtd">
<svg xmlns="http://www.w3.org/2000/svg" version="1.1" width="32px" height="32px" style="shape-rendering:geometricPrecision; text-rendering:geometricPrecision; image-rendering:optimizeQuality; fill-rule:evenodd; clip-rule:evenodd" xmlns:xlink="http://www.w3.org/1999/xlink">
<g><path style="opacity:0.645" fill="#fefffe" d="M 27.5,18.5 C 26.8333,18.5 26.5,18.8333 26.5,19.5C 25.8333,19.5 25.5,19.8333 25.5,20.5C 24.8333,20.5 24.5,20.8333 24.5,21.5C 24.4285,18.4029 24.2618,15.0696 24,11.5C 22.3362,7.91583 19.5029,6.24917 15.5,6.5C 7.70838,7.38939 4.87505,11.7227 7,19.5C 9.33438,23.4205 12.8344,25.4205 17.5,25.5C 17.5,26.1667 17.8333,26.5 18.5,26.5C 12.0425,28.8649 7.2092,26.8649 4,20.5C 2.55919,6.27497 8.72585,1.1083 22.5,5C 26.9173,8.43024 28.5839,12.9302 27.5,18.5 Z"/></g>
<g><path style="opacity:0.735" fill="#fefffe" d="M 14.5,9.5 C 18.8907,10.6958 19.224,12.1958 15.5,14C 16.448,14.4828 17.448,14.6495 18.5,14.5C 19.0934,17.5959 18.0934,19.9292 15.5,21.5C 11.7874,19.6628 11.7874,18.1628 15.5,17C 14.552,16.5172 13.552,16.3505 12.5,16.5C 12.1658,13.812 12.8325,11.4786 14.5,9.5 Z"/></g>
<g><path style="opacity:0.583" fill="#fefffe" d="M 31.5,17.5 C 31.5,18.5 31.5,19.5 31.5,20.5C 28.2026,23.2956 25.0359,26.2956 22,29.5C 20.9609,28.2899 19.7942,27.2899 18.5,26.5C 17.8333,26.5 17.5,26.1667 17.5,25.5C 16.0651,24.0152 16.2317,22.6819 18,21.5C 20.3191,25.4389 22.4858,25.4389 24.5,21.5C 25.1667,21.5 25.5,21.1667 25.5,20.5C 26.1667,20.5 26.5,20.1667 26.5,19.5C 27.1667,19.5 27.5,19.1667 27.5,18.5C 28.7079,17.7659 30.0413,17.4326 31.5,17.5 Z"/></g>
</svg>
