<?xml version="1.0" encoding="UTF-8"?>
<!DOCTYPE svg PUBLIC "-//W3C//DTD SVG 1.1//EN" "http://www.w3.org/Graphics/SVG/1.1/DTD/svg11.dtd">
<svg xmlns="http://www.w3.org/2000/svg" version="1.1" width="32px" height="32px" style="shape-rendering:geometricPrecision; text-rendering:geometricPrecision; image-rendering:optimizeQuality; fill-rule:evenodd; clip-rule:evenodd" xmlns:xlink="http://www.w3.org/1999/xlink">
<g><path style="opacity:0.749" fill="#e9e9e9" d="M 9.5,2.5 C 10.9953,2.41483 11.9953,3.08149 12.5,4.5C 11.018,6.48292 9.35132,8.31625 7.5,10C 4.69752,10.0242 3.36419,8.52418 3.5,5.5C 6.3126,5.97542 8.3126,4.97542 9.5,2.5 Z"/></g>
<g><path style="opacity:1" fill="#eaebea" d="M 15.5,5.5 C 20.2137,5.17338 24.8804,5.50671 29.5,6.5C 27.1667,6.83333 24.8333,7.16667 22.5,7.5C 19.7305,7.47144 17.3972,6.80478 15.5,5.5 Z"/></g>
<g><path style="opacity:0.749" fill="#e9e9e9" d="M 9.5,10.5 C 10.9953,10.4148 11.9953,11.0815 12.5,12.5C 11.018,14.4829 9.35132,16.3163 7.5,18C 4.69752,18.0242 3.36419,16.5242 3.5,13.5C 6.3126,13.9754 8.3126,12.9754 9.5,10.5 Z"/></g>
<g><path style="opacity:1" fill="#eaebea" d="M 15.5,13.5 C 20.2137,13.1734 24.8804,13.5067 29.5,14.5C 27.1667,14.8333 24.8333,15.1667 22.5,15.5C 19.7305,15.4714 17.3972,14.8048 15.5,13.5 Z"/></g>
<g><path style="opacity:0.749" fill="#e9e9e9" d="M 9.5,18.5 C 10.9953,18.4148 11.9953,19.0815 12.5,20.5C 11.018,22.4829 9.35132,24.3163 7.5,26C 4.69752,26.0242 3.36419,24.5242 3.5,21.5C 6.3126,21.9754 8.3126,20.9754 9.5,18.5 Z"/></g>
<g><path style="opacity:1" fill="#eaebea" d="M 15.5,21.5 C 20.2137,21.1734 24.8804,21.5067 29.5,22.5C 27.1667,22.8333 24.8333,23.1667 22.5,23.5C 19.7305,23.4714 17.3972,22.8048 15.5,21.5 Z"/></g>
</svg>
